<svg xmlns="http://www.w3.org/2000/svg" width="500" height="750" viewBox="0 0 500 750"><rect width="100%" height="100%" fill="#DDDDDD"/><path fill="#999999" d="M134.96 350.51h7.94v48.44h-4.62q-1.08 0-1.8-.35t-1.39-1.19l-25.29-32.3q.2 2.22.2 4.09v29.75h-7.94v-48.44h4.73q.57 0 .99.05.41.05.73.2t.62.44q.3.28.67.75l25.4 32.43q-.11-1.18-.17-2.31-.07-1.14-.07-2.11zm32.63 13.53q3.82 0 6.95 1.24t5.36 3.52 3.43 5.56q1.21 3.28 1.21 7.34 0 4.08-1.21 7.37-1.2 3.28-3.43 5.59t-5.36 3.55-6.95 1.24q-3.85 0-7-1.24t-5.38-3.55-3.45-5.59q-1.22-3.29-1.22-7.37 0-4.06 1.22-7.34t3.45-5.56 5.38-3.52 7-1.24m0 29.05q4.29 0 6.35-2.88t2.06-8.45q0-5.56-2.06-8.47-2.06-2.92-6.35-2.92-4.36 0-6.45 2.94-2.09 2.93-2.09 8.45 0 5.53 2.09 8.43t6.45 2.9m49.88-18.23h6.73q2.48 0 4.33-.62 1.84-.62 3.06-1.77 1.22-1.16 1.83-2.82.6-1.65.6-3.7 0-1.94-.6-3.52-.61-1.57-1.81-2.68-1.21-1.1-3.05-1.69-1.84-.58-4.36-.58h-6.73zm-9.01-24.35h15.74q4.86 0 8.41 1.14t5.87 3.18q2.31 2.04 3.43 4.89t1.12 6.23q0 3.52-1.17 6.45t-3.52 5.04q-2.34 2.11-5.88 3.29-3.53 1.17-8.26 1.17h-6.73v17.05h-9.01zm55.38 13.53q3.81 0 6.95 1.24 3.13 1.24 5.36 3.52 2.22 2.28 3.43 5.56t1.21 7.34q0 4.08-1.21 7.37-1.21 3.28-3.43 5.59-2.23 2.31-5.36 3.55-3.14 1.24-6.95 1.24-3.86 0-7.01-1.24t-5.37-3.55q-2.23-2.31-3.45-5.59-1.23-3.29-1.23-7.37 0-4.06 1.23-7.34 1.22-3.28 3.45-5.56 2.22-2.28 5.37-3.52t7.01-1.24m0 29.05q4.28 0 6.34-2.88t2.06-8.45q0-5.56-2.06-8.47-2.06-2.92-6.34-2.92-4.36 0-6.45 2.94-2.1 2.93-2.1 8.45 0 5.53 2.1 8.43 2.09 2.9 6.45 2.9m46.12-24.79-1.87 2.98q-.34.53-.7.75-.37.22-.94.22-.61 0-1.29-.33-.69-.34-1.59-.76-.91-.42-2.06-.75-1.16-.34-2.73-.34-2.45 0-3.84 1.04t-1.39 2.71q0 1.11.72 1.86.72.76 1.91 1.33t2.7 1.02q1.5.45 3.06.99 1.56.53 3.07 1.22 1.5.69 2.69 1.74 1.19 1.06 1.91 2.53.72 1.48.72 3.55 0 2.48-.88 4.58-.89 2.09-2.63 3.61-1.75 1.53-4.31 2.38-2.56.86-5.91.86-1.78 0-3.47-.32t-3.25-.89-2.88-1.34-2.33-1.68l1.91-3.14q.37-.57.87-.88.51-.3 1.28-.3t1.45.44q.69.43 1.59.94.91.5 2.13.93 1.22.44 3.1.44 1.47 0 2.53-.35 1.05-.35 1.74-.92t1.01-1.33q.31-.75.31-1.55 0-1.21-.72-1.98t-1.91-1.34q-1.18-.57-2.71-1.02-1.52-.45-3.11-.99-1.6-.54-3.12-1.26t-2.71-1.82q-1.19-1.11-1.91-2.72-.72-1.6-.72-3.88 0-2.11.83-4.02.84-1.91 2.47-3.33 1.62-1.43 4.05-2.28 2.43-.86 5.61-.86 3.55 0 6.47 1.18 2.91 1.17 4.85 3.08m18.06 31.19q-4.49 0-6.88-2.53-2.4-2.53-2.4-6.99v-19.19h-3.52q-.67 0-1.13-.44-.47-.43-.47-1.31v-3.28l5.52-.9 1.75-9.38q.16-.67.63-1.04t1.21-.37h4.29v10.82h9.18v5.9h-9.18v18.62q0 1.61.78 2.51.79.91 2.16.91.77 0 1.29-.18.52-.19.91-.39.38-.2.69-.39.3-.18.6-.18.37 0 .6.18.24.19.5.56l2.48 4.02q-1.81 1.5-4.15 2.28-2.35.77-4.86.77m20-21.68h15.61q0-1.61-.45-3.03t-1.36-2.5q-.9-1.07-2.29-1.69t-3.23-.62q-3.59 0-5.65 2.05-2.06 2.04-2.63 5.79m21.11 4.99h-21.28q.2 2.65.94 4.58.74 1.92 1.94 3.18 1.21 1.25 2.87 1.87t3.67.62 3.46-.47q1.46-.46 2.55-1.03t1.91-1.04 1.59-.47q1.04 0 1.54.77l2.38 3.01q-1.37 1.61-3.08 2.7t-3.57 1.74q-1.86.66-3.79.92-1.92.27-3.73.27-3.58 0-6.67-1.19-3.08-1.19-5.36-3.51-2.27-2.33-3.58-5.77-1.31-3.43-1.31-7.95 0-3.52 1.14-6.62t3.27-5.39q2.12-2.3 5.19-3.64t6.92-1.34q3.25 0 5.99 1.04 2.75 1.04 4.73 3.03 1.97 2 3.1 4.89 1.12 2.9 1.12 6.62 0 1.88-.4 2.53-.41.65-1.54.65m15.44-16.14.5 3.88q1.61-3.08 3.82-4.84t5.23-1.76q2.38 0 3.82 1.04l-.54 6.2q-.17.6-.49.85-.31.25-.85.25-.5 0-1.49-.16-.99-.17-1.93-.17-1.37 0-2.44.4t-1.93 1.16q-.85.75-1.51 1.82-.65 1.07-1.22 2.45v21.17h-8.27v-34.37h4.85q1.28 0 1.78.45t.67 1.63"/></svg>