<svg width="50" height="50" viewBox="0 0 8 8" xmlns="http://www.w3.org/2000/svg" aria-hidden="true" class="iconify iconify--noto">
  <path d="M.426 2.219v4.689c0 .195.181.326.395.476.221.155.343.141.448.141l5.991.039c.236 0 .314-.161.314-.334V2.219z" fill="#bdbdbd"/>
  <path opacity=".29" fill="url(#a)" d="m7.574 7.229-.517-.532V2.219l.517.314z"/>
  <path d="m7.574 2.576-.404-.253L6.539.875h.34c.603 0 .696.348.696.467z" fill="#c62828"/>
  <path d="M.609 2.271v4.508c0 .169.137.305.305.305h5.928c.169 0 .326-.126.326-.294V2.271z" fill="#fafafa"/>
  <path d="M7.171 2.323H.426V1.159c0-.157.161-.284.359-.284h6.037c.199 0 .361.128.359.286z" fill="#f44336"/>
  <path d="M6.482 7.289c-.199.024-.398.034-.596.052q-.299.02-.596.031c-.199.01-.398.012-.596.018l-.596.006-.596-.006c-.199-.006-.398-.008-.596-.018a20 20 0 0 1-.596-.031c-.199-.018-.398-.028-.596-.052v-.013l2.384-.006 2.384.006z" fill="#757575"/>
  <path fill="#b3e5fc" d="M2.654 2.817v.758H1.01v3.078h3.259v-.767H6.69V2.817z"/>
  <path fill="#af1e1e" d="M1.379 1.238a.185.206 0 0 1-.185.206.185.206 0 0 1-.185-.206.185.206 0 0 1 .37 0"/>
  <path d="M1.28 1.067a.45.45 0 0 1-.043-.193c0-.167.087-.308.19-.308s.19.141.19.308h.28c0-.342-.211-.621-.469-.621s-.47.279-.47.622c0 .122.027.235.072.331.042.087.131.126.211.084.066-.036.075-.147.039-.223" fill="#94d1e0"/>
  <path d="M1.897.875a.7.7 0 0 0-.199-.507c.001.004.036.093-.013.179-.049.087-.152.074-.152.074.051.056.084.15.084.254z" fill="#2f7889"/>
  <path fill="#af1e1e" d="M2.409 1.238a.185.206 0 0 1-.185.206.185.206 0 0 1-.185-.206.185.206 0 0 1 .37 0"/>
  <path d="M2.31 1.067a.45.45 0 0 1-.043-.193c0-.167.087-.308.19-.308s.19.141.19.308h.28c0-.342-.211-.621-.469-.621s-.47.279-.47.622c0 .122.027.235.072.331.042.087.131.126.211.084.066-.036.075-.147.039-.223" fill="#94d1e0"/>
  <path d="M2.728.368c.001.004.036.093-.013.179-.05.087-.152.074-.152.074.051.056.084.15.084.254h.281a.7.7 0 0 0-.2-.507" fill="#2f7889"/>
  <path fill="#af1e1e" d="M3.439 1.238a.185.206 0 0 1-.185.206.185.206 0 0 1-.185-.206.185.206 0 0 1 .37 0"/>
  <path d="M3.34 1.067a.45.45 0 0 1-.043-.193c0-.167.087-.308.19-.308s.19.141.19.308h.28c0-.342-.211-.621-.469-.621s-.47.279-.47.622c0 .122.027.235.072.331.042.087.131.126.211.084.066-.036.075-.147.039-.223" fill="#94d1e0"/>
  <path d="M3.757.368c.001.004.036.093-.013.179-.049.087-.152.074-.152.074.051.056.084.15.084.254h.282a.7.7 0 0 0-.201-.507" fill="#2f7889"/>
  <path fill="#af1e1e" d="M4.469 1.238a.185.206 0 0 1-.185.206.185.206 0 0 1-.185-.206.185.206 0 0 1 .37 0"/>
  <path d="M4.37 1.067a.45.45 0 0 1-.043-.193c0-.167.087-.308.19-.308s.19.141.19.308h.28c0-.342-.211-.621-.469-.621s-.47.279-.47.622c0 .122.027.235.072.331.042.087.131.126.211.084.066-.036.074-.147.039-.223" fill="#94d1e0"/>
  <path d="M4.787.368c.001.004.036.093-.013.179-.049.087-.152.074-.152.074.051.056.084.15.084.254h.282a.7.7 0 0 0-.202-.507" fill="#2f7889"/>
  <path fill="#af1e1e" d="M5.499 1.238a.185.206 0 0 1-.185.206.185.206 0 0 1-.185-.206.185.206 0 0 1 .37 0"/>
  <path d="M5.399 1.067a.45.45 0 0 1-.043-.193c0-.167.087-.308.19-.308s.19.141.19.308h.28c0-.342-.211-.621-.469-.621s-.47.279-.47.622c0 .122.027.235.072.331.042.087.131.126.211.084.066-.036.075-.147.039-.223" fill="#94d1e0"/>
  <path d="M5.817.368c.001.004.036.093-.013.179-.049.087-.152.074-.152.074.051.056.084.15.084.254h.284a.7.7 0 0 0-.203-.507" fill="#2f7889"/>
  <path fill="#af1e1e" d="M6.529 1.238a.185.206 0 0 1-.185.206.185.206 0 0 1-.185-.206.185.206 0 0 1 .37 0"/>
  <path d="M6.429 1.067a.45.45 0 0 1-.043-.193c0-.167.087-.308.19-.308s.19.141.19.308h.28c0-.342-.211-.621-.469-.621s-.47.279-.47.622c0 .122.027.235.072.331.042.087.131.126.211.084.066-.036.075-.147.039-.223" fill="#94d1e0"/>
  <path d="M7.05.886C7.041.635 6.959.474 6.846.369c.001.004.036.093-.013.179-.049.087-.152.074-.152.074.051.056.076.15.076.254h.096a2 2 0 0 1 .198.011" fill="#2f7889"/>
  <path d="M1.041 2.82v3.833m.807-3.833v3.833m.807-3.833v3.833m.807-3.833v3.833m.807-3.833v3.833m.807-3.833v3.833m.807-3.833v3.833M6.69 2.82v3.833m-5.649 0H6.69m-5.649-.767H6.69M1.041 5.12H6.69m-5.649-.767H6.69m-5.649-.766H6.69M1.041 2.82H6.69" fill="none" stroke="#1e88e5" stroke-linecap="square" stroke-miterlimit="10" stroke-width=".063"/>
  <path d="M6.559 3.007a.08.08 0 0 1-.079.079.08.08 0 0 1-.079-.079.079.079 0 0 1 .158 0m-.811 0a.08.08 0 0 1-.079.079.08.08 0 0 1-.079-.079.079.079 0 0 1 .158 0m-.812 0a.08.08 0 0 1-.079.079.08.08 0 0 1-.078-.079.079.079 0 0 1 .157 0m-.812 0a.08.08 0 0 1-.078.079.08.08 0 0 1-.079-.079.079.079 0 0 1 .157 0m-.811 0a.08.08 0 0 1-.079.079.08.08 0 0 1-.078-.079.079.079 0 0 1 .157 0m-.811 0a.08.08 0 0 1-.079.079.08.08 0 0 1-.079-.079.079.079 0 0 1 .158 0m-.811 0a.08.08 0 0 1-.079.079.08.08 0 0 1-.079-.079.079.079 0 0 1 .158 0m4.868.767a.08.08 0 0 1-.079.079.08.08 0 0 1-.079-.079.079.079 0 0 1 .158 0m-.811 0a.08.08 0 0 1-.079.079.08.08 0 0 1-.079-.079.079.079 0 0 1 .158 0m-.812 0a.08.08 0 0 1-.079.079.08.08 0 0 1-.078-.079.079.079 0 0 1 .157 0m-.812 0a.08.08 0 0 1-.078.079.08.08 0 0 1-.079-.079.079.079 0 0 1 .157 0m-.811 0a.08.08 0 0 1-.079.079.08.08 0 0 1-.078-.079.079.079 0 0 1 .157 0m-.811 0a.08.08 0 0 1-.079.079.08.08 0 0 1-.079-.079.079.079 0 0 1 .158 0m-.811 0a.08.08 0 0 1-.079.079.08.08 0 0 1-.079-.079.079.079 0 0 1 .158 0m4.868.767a.08.08 0 0 1-.079.078.08.08 0 0 1-.079-.078.079.079 0 0 1 .158 0m-.811 0a.08.08 0 0 1-.079.078.08.08 0 0 1-.079-.078.079.079 0 0 1 .158 0m-.812 0a.08.08 0 0 1-.079.078.08.08 0 0 1-.078-.078.079.079 0 0 1 .157 0m-.812 0a.08.08 0 0 1-.078.078.08.08 0 0 1-.079-.078.079.079 0 0 1 .157 0m-.811 0a.08.08 0 0 1-.079.078.08.08 0 0 1-.078-.078.079.079 0 0 1 .157 0m-.811 0a.08.08 0 0 1-.079.078.08.08 0 0 1-.079-.078.079.079 0 0 1 .158 0m-.811 0a.08.08 0 0 1-.079.078.08.08 0 0 1-.079-.078.079.079 0 0 1 .158 0m4.868 1.533a.08.08 0 0 1-.079.079.08.08 0 0 1-.079-.079.079.079 0 0 1 .158 0m-.811 0a.08.08 0 0 1-.079.079.08.08 0 0 1-.079-.079.079.079 0 0 1 .158 0m-.812 0a.08.08 0 0 1-.079.079.08.08 0 0 1-.078-.079.079.079 0 0 1 .157 0m-.812 0a.08.08 0 0 1-.078.079.08.08 0 0 1-.079-.079.079.079 0 0 1 .157 0m-.811 0a.08.08 0 0 1-.079.079.08.08 0 0 1-.078-.079.079.079 0 0 1 .157 0m-.811 0a.08.08 0 0 1-.079.079.08.08 0 0 1-.079-.079.079.079 0 0 1 .158 0m-.811 0a.08.08 0 0 1-.079.079.08.08 0 0 1-.079-.079.079.079 0 0 1 .158 0m4.868-.766a.08.08 0 0 1-.079.078.08.08 0 0 1-.079-.078.079.079 0 0 1 .158 0m-.811 0a.08.08 0 0 1-.079.078.08.08 0 0 1-.079-.078.079.079 0 0 1 .158 0m-.812 0a.08.08 0 0 1-.079.078.08.08 0 0 1-.078-.078.079.079 0 0 1 .157 0m-.812 0a.08.08 0 0 1-.078.078.08.08 0 0 1-.079-.078.079.079 0 0 1 .157 0m-.811 0a.08.08 0 0 1-.079.078.08.08 0 0 1-.078-.078.079.079 0 0 1 .157 0m-.811 0a.08.08 0 0 1-.079.078.08.08 0 0 1-.079-.078.079.079 0 0 1 .158 0m-.811 0a.08.08 0 0 1-.079.078.08.08 0 0 1-.079-.078.079.079 0 0 1 .158 0" fill="#1e88e5"/>
</svg>
