<svg width="50" height="50" viewBox="0 0 8 8" xmlns="http://www.w3.org/2000/svg" aria-hidden="true" class="iconify iconify--noto">
  <path d="M2.002 7.729a.195.195 0 0 1-.097-.237l.251-.736.492.332-.398.578a.196.196 0 0 1-.249.064m3.958 0a.194.194 0 0 0 .097-.237l-.254-.744-.518.298.427.62a.196.196 0 0 0 .249.064" fill="#82aec0"/>
  <path d="m2.157 6.756-.128.375c.079-.046.183-.041.266-.001s.146.112.194.191l.146-.211c0-.009-.477-.354-.477-.354m3.647-.009.139.412a.27.27 0 0 0-.258-.004.5.5 0 0 0-.194.191l-.191-.277z" fill="#2f7889"/>
  <path fill="#ffefa1" d="M6.607 4.621a2.626 2.626 0 0 1-2.626 2.625 2.626 2.626 0 0 1-2.625-2.625 2.626 2.626 0 0 1 5.251 0"/>
  <path fill="#cc2929" d="M7.066 4.389a3.085 3.085 0 0 1-3.085 3.085A3.085 3.085 0 0 1 .896 4.389a3.085 3.085 0 0 1 6.17 0"/>
  <path fill="#ff4638" d="M6.881 4.544a2.9 2.9 0 0 1-2.9 2.9 2.9 2.9 0 0 1-2.9-2.9 2.9 2.9 0 0 1 5.8 0"/>
  <path fill="#fafafa" d="M6.483 4.544a2.5 2.5 0 0 1-2.502 2.502 2.5 2.5 0 0 1-2.502-2.502 2.502 2.502 0 0 1 5.004 0"/>
  <path fill="#563428" d="M4.278 4.544A.28.28 0 0 1 4 4.822a.28.28 0 0 1-.278-.278.278.278 0 0 1 .556 0"/>
  <path d="M3.981 2.661a.09.09 0 0 1-.092-.092v-.275c0-.051.041-.092.092-.092s.092.041.092.092v.275a.09.09 0 0 1-.092.092m0 4.224a.09.09 0 0 1-.092-.092v-.275c0-.051.041-.092.092-.092s.092.041.092.092v.275a.09.09 0 0 1-.092.092m2.249-2.25h-.275c-.051 0-.092-.041-.092-.092s.041-.092.092-.092h.275c.051 0 .092.041.092.092a.09.09 0 0 1-.092.092m-4.224 0h-.275c-.051 0-.092-.041-.092-.092s.041-.092.092-.092h.275c.051 0 .092.041.092.092a.09.09 0 0 1-.092.092" fill="#b2947c"/>
  <path d="M3.981 2.661a.09.09 0 0 1-.092-.092v-.275c0-.051.041-.092.092-.092s.092.041.092.092v.275a.09.09 0 0 1-.092.092m0 4.224a.09.09 0 0 1-.092-.092v-.275c0-.051.041-.092.092-.092s.092.041.092.092v.275a.09.09 0 0 1-.092.092M2.914 2.879l-.138-.238a.09.09 0 0 1 .034-.126.09.09 0 0 1 .126.034l.138.238c.026.044.011.1-.034.126a.093.093 0 0 1-.126-.034m2.112 3.658-.138-.238a.092.092 0 1 1 .16-.092l.138.238a.092.092 0 1 1-.16.092" fill="#b2947c"/>
  <path d="m2.914 2.879-.138-.238a.09.09 0 0 1 .034-.126.09.09 0 0 1 .126.034l.138.238c.026.044.011.1-.034.126a.093.093 0 0 1-.126-.034m2.112 3.658-.138-.238a.092.092 0 1 1 .16-.092l.138.238a.092.092 0 1 1-.16.092m-2.8-2.901-.238-.138a.093.093 0 0 1-.034-.126.093.093 0 0 1 .126-.034l.238.138a.093.093 0 0 1 .034.126.093.093 0 0 1-.126.034m3.658 2.112-.238-.138a.093.093 0 0 1-.034-.126.093.093 0 0 1 .126-.034l.238.138a.093.093 0 0 1 .034.126.093.093 0 0 1-.126.034m-.961-2.835a.093.093 0 0 1-.034-.126l.138-.238a.093.093 0 0 1 .126-.034.093.093 0 0 1 .034.126l-.138.238a.093.093 0 0 1-.126.034M2.811 6.571a.093.093 0 0 1-.034-.126l.138-.238a.093.093 0 0 1 .126-.034.093.093 0 0 1 .034.126l-.138.238a.093.093 0 0 1-.126.034m2.801-2.969a.09.09 0 0 1 .034-.126l.238-.138a.092.092 0 1 1 .092.16l-.238.138a.09.09 0 0 1-.126-.034M1.954 5.714a.09.09 0 0 1 .034-.126l.238-.138a.092.092 0 1 1 .092.16l-.238.138a.093.093 0 0 1-.126-.034" fill="#b2947c"/>
  <path fill="none" stroke="#563428" stroke-width=".313" stroke-linecap="round" stroke-miterlimit="10" d="m2.968 3.968 1.013.576"/>
  <path fill="none" stroke="#563428" stroke-width=".219" stroke-linecap="round" stroke-miterlimit="10" d="m5.429 3.713-1.402.831"/>
  <path fill="#82aec0" d="m5.749 2.031-.259-.169.881-1.56.269.152z"/>
  <path d="M6.948 2.201a.15.15 0 0 0 .183-.096A1.39 1.39 0 0 0 6.436.428C5.797.099 5.102.315 4.698.867a.15.15 0 0 0 .022.199c.131.116.421.333.999.626a7.5 7.5 0 0 0 1.229.51" fill="#cc2929"/>
  <path d="M6.616.644s.163-.208-.074-.34c-.184-.102-.301.122-.301.122-.041.074.347.269.375.218M2.227 2.033 1.335.453l.269-.152.866 1.535z" fill="#82aec0"/>
  <path d="M1.052 2.201a.15.15 0 0 1-.183-.096A1.39 1.39 0 0 1 1.564.428C2.203.099 2.898.315 3.302.867a.15.15 0 0 1-.022.199c-.131.116-.421.333-.999.626a7.5 7.5 0 0 1-1.229.51" fill="#cc2929"/>
  <path d="M1.384.644s-.163-.208.074-.34c.184-.102.301.122.301.122.041.074-.347.269-.375.218" fill="#82aec0"/>
  <path fill="none" stroke="#82aec0" stroke-width=".232" stroke-miterlimit="10" d="M3.981 1.451V.594"/>
  <path d="M3.985.899c-.245 0-.491-.094-.491-.094V.619s.228-.102.502-.102.478.102.478.102v.186c.001.001-.244.094-.49.094" fill="#82aec0"/>
  <path d="M3.556.612c-.027.01-.029.047-.004.061.036.021.079.042.094.039.206-.032.506-.016.713.015.014.003.056-.033.085-.059.016-.015.013-.041-.007-.05a1.1 1.1 0 0 0-.439-.082c-.21 0-.362.044-.441.075" fill="#94d1e0"/>
  <path d="M5.941.494c.019.066-.052.121-.109.159a1 1 0 0 0-.338.389c-.036.075-.077.167-.16.179a.2.2 0 0 1-.097-.017 1 1 0 0 1-.141-.061c-.054-.028-.11-.063-.135-.118-.033-.073-.002-.159.042-.227.104-.159.274-.258.449-.323.106-.039.436-.16.488.019m-4.308.527q.061.126.137.245c.062.096.134.204.107.315-.031.128-.172.189-.296.231l-.191.066a.3.3 0 0 1-.105.022.19.19 0 0 1-.139-.084.4.4 0 0 1-.061-.155 1.24 1.24 0 0 1 .027-.636c.037-.117.096-.241.229-.251.162-.011.231.121.291.247" fill="#ff4638"/>
</svg>
