<svg width="50" height="50" viewBox="0 0 8 8" xmlns="http://www.w3.org/2000/svg" aria-hidden="true" class="iconify iconify--noto">
  <radialGradient id="a" cx="65.025" cy="5.037" r="105.925" gradientUnits="userSpaceOnUse">
    <stop offset=".21" stop-color="#01b3f7"/>
    <stop offset=".457" stop-color="#01b3f7"/>
  </radialGradient>
  <path d="M7.08 1.787C6.144.477 4.617.347 4.003.338 3.409.329 2.147.527 1.224 1.475.54 2.178.207 3.053.22 4.065c.011.917.326 1.673.9 2.361.848 1.017 2.053 1.281 2.896 1.281l.071-.001c.821-.022 2.242-.258 3.09-1.646a4.03 4.03 0 0 0 .596-2.013 3.8 3.8 0 0 0-.693-2.261m.244 1.954-.719-.002a4.8 4.8 0 0 0-.236-1.331l.548.002c.179.321.362.771.407 1.331m-6.648.485.749.002c.03.421.099.888.247 1.347h-.609a3.1 3.1 0 0 1-.387-1.349M4.241.734c.221.083.864.378 1.335 1.173l-1.338-.004zM3.8.752v1.149l-1.376-.004A2.87 2.87 0 0 1 3.8.751m0 1.649v1.332l-1.889-.004a3.8 3.8 0 0 1 .258-1.332zM1.407 3.727l-.726-.002a3.1 3.1 0 0 1 .437-1.332l.508.001a4.1 4.1 0 0 0-.219 1.333m.514.501 1.879.004v1.341H2.188a4.8 4.8 0 0 1-.266-1.346m1.879 1.846v1.199c-.254-.081-.916-.365-1.384-1.199zm.429 1.208.009-1.208h1.386c-.428.83-1.069 1.129-1.396 1.208m.009-1.708V4.234l1.852.004a4.6 4.6 0 0 1-.24 1.336zm0-1.84V2.402l1.585.004c.142.364.242.803.266 1.331zM6.58 1.909l-.418-.001a3.5 3.5 0 0 0-.499-.752c.324.172.643.414.917.753m-4.236-.723a3.5 3.5 0 0 0-.499.709l-.361-.001q.064-.074.133-.146c.231-.236.479-.421.728-.563m-.881 4.949-.052-.061h.458c.134.279.305.546.524.787a3.4 3.4 0 0 1-.93-.727m4.191.761c.188-.228.42-.506.549-.822h.407a3.7 3.7 0 0 1-.956.822m1.279-1.322h-.542c.14-.459.198-.924.213-1.334l.719.002a3.4 3.4 0 0 1-.391 1.333" fill="url(#a)"/>
  <path fill="#188aff" d="m5.853 2.484-1.616-.005.001-.156 1.558.007zm-2.052-.006L2.14 2.474l.059-.154 1.602.002zm0 1.832-1.874-.003-.012-.157 1.886.004zm2.286.004L4.238 4.31v-.156l1.856.007zm1.231.003-.716.001.007-.158.724.002zm-.362-1.835-.562.003-.05-.151.535.004zM3.801 6.151l-1.34-.001-.087-.146 1.43-.009zm1.785-.005-1.349.004.001-.156 1.428.004zm-3.679.001-.424.007-.126-.142.488-.001zm-.476-1.843-.75-.001-.011-.157.752.004zm.17-1.832-.527-.003.086-.152.493-.001zm4.945 3.682-.376-.003.066-.147.431.003zm-4.118-4.26.001-.006c.013-.018.216-.467.603-.794.393-.333.757-.433.773-.438l-.003.166c-.004.001-.325.082-.698.382-.439.353-.672.686-.676.69m3.149.013c-.002-.003-.157-.279-.591-.635A3.7 3.7 0 0 0 4.24.811l.002-.163c.019.007.43.186.782.502.398.356.541.731.549.744zm1.002 0a8 8 0 0 0-.44-.378 2 2 0 0 0-.372-.247l-.159-.194c.013.006.364.182.588.376.221.192.371.425.379.434zm-5.095-.013.002-.006c.007-.008.131-.202.347-.404.263-.245.556-.358.566-.364l-.14.163c-.003.001-.113.04-.387.261-.219.176-.386.349-.388.351"/>
  <path d="M4.007 7.784C1.441 7.784.591 5.633.583 5.612l.007.015c.009.021.958 2.001 3.417 2.001h.008c1.323-.003 2.151-.553 2.614-1.015.503-.502.769-.968.771-.973l.003-.006c-.008.021-.746 2.146-3.388 2.151z" fill="#188aff"/>
</svg>
