<svg xmlns="http://www.w3.org/2000/svg" width="50" height="50" viewBox="0 0 3.25 3.25" xml:space="preserve">
  <path fill="white" d="M2.169 2.256a.08.08 0 0 0 0-.113l-.113-.113a.08.08 0 0 0-.113 0l-.275.275a.056.056 0 0 1-.075 0l-.275-.275a.08.08 0 0 0-.113 0l-.113.113a.08.08 0 0 0 0 .113l.275.275a.056.056 0 0 1 0 .075l-.275.275a.08.08 0 0 0 0 .113l.113.113a.08.08 0 0 0 .113 0l.275-.275a.056.056 0 0 1 .075 0l.275.275a.08.08 0 0 0 .113 0l.113-.113a.08.08 0 0 0 0-.113l-.275-.275a.056.056 0 0 1 0-.075zM2.982.725C2.638.344 2.151.131 1.632.131S.625.344.281.725a.06.06 0 0 0 .006.087l.188.163C.5 1 .538.994.562.969a1.464 1.464 0 0 1 2.138 0 .066.066 0 0 0 .087.006l.188-.163C3 .787 3.006.749 2.981.725m-1.35.281a.91.91 0 0 0-.688.313c-.025.025-.019.069.006.094l.2.15c.025.019.063.019.081-.006a.547.547 0 0 1 .794-.006c.019.025.056.025.081.006l.2-.15c.031-.025.031-.063.006-.094a.9.9 0 0 0-.681-.306"/>
</svg>
