<svg width="50" height="50" viewBox="0 0 32 32" xmlns="http://www.w3.org/2000/svg" aria-hidden="true" class="iconify iconify--fxemoji"><path fill="#ffd3b6" d="M30.556 20.756a.202.202 0 0 1 0-.375c.831-.375 1.406-1.212 1.406-2.188s-.575-1.794-1.406-2.163a.202.202 0 0 1 0-.375c.831-.375.969-1.212.969-2.188 0-1.331-.969-2.369-2.894-2.369h-9.218a2 2 0 0 0-.331.025l-.013-.025h-3.737c.556-.681 1.113-2.294 1.444-3.344 1.475-4.638-.056-6.525-1.444-7.025-1.169-.419-2.462 1.1-2.85 2.35-2.531 5.95-4.544 6.981-5.313 7.681a5.5 5.5 0 0 0-1.894 2.25H1.719A1.72 1.72 0 0 0 0 14.731v10.881c0 .95.769 1.719 1.719 1.719h4.737a7.41 7.41 0 0 0 5.75 2.725h16.419a2.4 2.4 0 0 0 2.394-2.406c0-.975-.575-1.794-1.406-2.163-.131-.056-.169-.244-.094-.331.037-.013.069-.031.106-.044 1.144-.087 2.087-.938 2.087-2.188-.006-.981-.331-1.8-1.156-2.169"/><path fill="#edc0a2" d="M17.019 27.681c0-.975.575-1.813 1.406-2.188a.204.204 0 0 0 .019-.369 2.34 2.34 0 0 1-1.119-1.006l-.075-.15v-.006l-.063-.138c0-.006-.006-.013-.006-.019q-.03-.075-.05-.15c0-.006 0-.006-.006-.013-.013-.044-.025-.094-.037-.138 0-.013-.006-.025-.006-.031-.013-.05-.019-.1-.031-.156v-.013l-.019-.144v-.044c-.006-.056-.006-.106-.006-.163s0-.106.006-.163v-.044c.006-.05.006-.1.019-.144v-.013c.006-.05.019-.106.031-.156 0-.013.006-.025.006-.031l.037-.144c0-.006 0-.006.006-.013.019-.05.031-.1.05-.15 0-.006.006-.013.006-.019.019-.05.037-.1.063-.144a2.42 2.42 0 0 1 1.2-1.181.206.206 0 0 0-.025-.369c-.831-.369-1.406-1.188-1.406-2.163s.575-1.813 1.406-2.188a.202.202 0 0 0 0-.375 2.35 2.35 0 0 1-1.406-2.163 2.4 2.4 0 0 1 2.394-2.406h-1.319a2.4 2.4 0 0 0-2.394 2.406c0 .975.575 1.794 1.406 2.163.169.075.169.3 0 .375-.831.375-1.406 1.212-1.406 2.188s.575 1.794 1.406 2.163c.169.075.169.3 0 .375-.831.375-1.406 1.212-1.406 2.188s.575 1.794 1.406 2.163c.169.075.169.3 0 .375a2.39 2.39 0 0 0-1.406 2.188c0 1.331 1.069 2.369 2.394 2.369h1.319c-1.325.006-2.394-1.031-2.394-2.362M4.775 22.625v-7.319c0-.819.181-1.594.5-2.294h-.769c-.725 0-1.313.588-1.313 1.313v11.694c0 .725.588 1.313 1.313 1.313h1.95a7.4 7.4 0 0 1-1.681-4.706"/></svg>