<svg width="50" height="50" viewBox="0 0 8 8" xmlns="http://www.w3.org/2000/svg" aria-hidden="true" class="iconify iconify--noto">
  <path d="m4.253.452.841 1.919a.44.44 0 0 0 .364.262l2.049.184a.282.282 0 0 1 .156.482L6.119 4.596a.44.44 0 0 0-.147.429l.449 2.101a.282.282 0 0 1-.41.297L4.223 6.375a.44.44 0 0 0-.445 0L1.989 7.422a.283.283 0 0 1-.41-.297l.449-2.101a.44.44 0 0 0-.147-.429L.336 3.299a.283.283 0 0 1 .156-.482l2.049-.184a.44.44 0 0 0 .364-.262L3.746.452a.283.283 0 0 1 .507-.001" fill="#fdd835"/>
  <path d="M4.192 2.486 4.05 1.072c-.006-.079-.022-.214.104-.214.1 0 .154.208.154.208l.427 1.135c.161.432.095.58-.061.667-.179.1-.443.022-.483-.383" fill="#ffff8d"/>
  <path d="m5.955 4.469 1.226-.956c.061-.051.17-.131.083-.223-.069-.072-.257.032-.257.032l-1.073.419c-.32.111-.532.274-.551.481-.024.275.223.487.573.248" fill="#f4b400"/>
</svg>
